<svg width="22" height="22" viewBox="0 0 22 22" fill="none" xmlns="http://www.w3.org/2000/svg">
<path fill-rule="evenodd" clip-rule="evenodd" d="M9.95186 7.64316C10.4268 7.00313 10.5971 6.3286 10.06 5.7332C8.85459 4.04655 8.04394 3.00353 7.53547 2.50124C6.56879 1.54632 4.97858 1.67549 4.14137 2.50042C3.69169 2.94351 3.53946 3.09566 3.07774 3.56464C0.505892 6.13787 2.07434 11.5776 6.24383 15.7512C10.4124 19.9238 15.8516 21.4931 18.4288 18.9144C18.8549 18.5037 19.2156 18.1428 19.5001 17.8421C20.3206 16.9749 20.4451 15.4548 19.4947 14.4673C19.0075 13.961 18.0129 13.1895 16.2552 11.9323C15.7169 11.4509 15.0787 11.5553 14.4935 11.9392C14.212 12.1238 14.0072 12.3106 13.6204 12.6978L12.918 13.4006C12.8255 13.4931 11.5693 12.864 10.3499 11.6434C9.1298 10.4222 8.50113 9.16589 8.59321 9.07381L9.29609 8.37055C9.41881 8.24771 9.47748 8.18824 9.55272 8.10916C9.70947 7.94441 9.83926 7.7949 9.95186 7.64316ZM14.2137 14.6969L14.9162 13.994C15.1291 13.7809 15.267 13.6499 15.3793 13.5596C16.9189 14.6653 17.8106 15.3605 18.1749 15.739C18.3935 15.9662 18.3596 16.3808 18.1695 16.5817C17.9064 16.8598 17.5646 17.2018 17.1452 17.6063C15.4786 19.2736 11.088 18.0068 7.53976 14.4551C3.99044 10.9023 2.72429 6.51097 4.37824 4.85611C4.8381 4.38906 4.9838 4.24344 5.42705 3.80668C5.59325 3.64292 6.04596 3.60615 6.24813 3.80587C6.63961 4.19258 7.36579 5.1224 8.43404 6.61047C8.37874 6.67912 8.30967 6.75671 8.22562 6.84505C8.16392 6.90989 8.11252 6.962 8.00016 7.07447L7.29797 7.77704C6.10342 8.9715 7.12075 11.0044 9.05395 12.9395C10.9858 14.8733 13.0195 15.8918 14.2137 14.6969Z" fill="#282828"/>
</svg>
