<svg width="20" height="20" viewBox="0 0 20 20" fill="none" xmlns="http://www.w3.org/2000/svg">
<path fill-rule="evenodd" clip-rule="evenodd" d="M8.95193 6.64316C9.42685 6.00313 9.59716 5.3286 9.06003 4.7332C7.85465 3.04655 7.04401 2.00353 6.53553 1.50124C5.56885 0.546318 3.97864 0.675487 3.14143 1.50042C2.69175 1.94351 2.53952 2.09566 2.0778 2.56464C-0.494047 5.13787 1.0744 10.5776 5.2439 14.7512C9.41245 18.9238 14.8516 20.4931 17.4289 17.9144C17.855 17.5037 18.2157 17.1428 18.5002 16.8421C19.3206 15.9749 19.4452 14.4548 18.4948 13.4673C18.0075 12.961 17.0129 12.1895 15.2553 10.9323C14.717 10.4509 14.0787 10.5553 13.4936 10.9392C13.2121 11.1238 13.0073 11.3106 12.6205 11.6978L11.9181 12.4006C11.8256 12.4931 10.5694 11.864 9.34994 10.6434C8.12986 9.42215 7.50119 8.16589 7.59327 8.07381L8.29615 7.37055C8.41887 7.24771 8.47754 7.18824 8.55278 7.10916C8.70954 6.94441 8.83933 6.7949 8.95193 6.64316ZM13.2137 13.6969L13.9162 12.994C14.1291 12.7809 14.2671 12.6499 14.3793 12.5596C15.919 13.6653 16.8107 14.3605 17.1749 14.739C17.3936 14.9662 17.3596 15.3808 17.1695 15.5817C16.9065 15.8598 16.5647 16.2018 16.1452 16.6063C14.4787 18.2736 10.088 17.0068 6.53982 13.4551C2.99051 9.90229 1.72435 5.51097 3.3783 3.85611C3.83816 3.38906 3.98386 3.24344 4.42711 2.80668C4.59331 2.64292 5.04602 2.60615 5.24819 2.80587C5.63967 3.19258 6.36585 4.1224 7.4341 5.61047C7.3788 5.67912 7.30973 5.75671 7.22568 5.84505C7.16398 5.90989 7.11258 5.962 7.00022 6.07447L6.29804 6.77704C5.10348 7.9715 6.12081 10.0044 8.05401 11.9395C9.9859 13.8733 12.0196 14.8918 13.2137 13.6969Z" fill="#1D1954"/>
</svg>
