<svg width="17" height="17" viewBox="0 0 17 17" fill="none" xmlns="http://www.w3.org/2000/svg">
<path fill-rule="evenodd" clip-rule="evenodd" d="M1.71574 6.91785C1.71574 9.93057 4.15804 12.3729 7.17076 12.3729C8.43136 12.3729 9.59208 11.9453 10.5158 11.2272L14.1893 14.9007L15.1536 13.9364L11.4801 10.2629C12.1982 9.33917 12.6258 8.17844 12.6258 6.91785C12.6258 3.90512 10.1835 1.46283 7.17076 1.46283C4.15804 1.46283 1.71574 3.90512 1.71574 6.91785ZM7.17077 11.0091C9.43031 11.0091 11.262 9.1774 11.262 6.91786C11.262 4.65832 9.43031 2.8266 7.17077 2.8266C4.91123 2.8266 3.07951 4.65832 3.07951 6.91786C3.07951 9.1774 4.91123 11.0091 7.17077 11.0091ZM6.48889 4.19035V6.23598H4.44326V7.59974H6.48889V9.64537H7.85265V7.59974H9.89828V6.23598H7.85265V4.19035H6.48889Z" fill="#1D1954"/>
</svg>
