<svg width="70" height="48" viewBox="0 0 70 48" fill="none" xmlns="http://www.w3.org/2000/svg">
<g clip-path="url(#clip0)">
<path d="M58.4182 13.5078C60.0091 13.5078 61.5364 13.8219 62.9364 14.3874C64.3364 14.9528 65.5455 15.7696 66.6273 16.7748C67.7091 17.7801 68.5364 18.9738 69.1091 20.356C69.7455 21.7382 70 23.1832 70 24.6911C70 26.2617 69.6818 27.7068 69.1091 29.089C68.4727 30.4712 67.6455 31.6649 66.6273 32.6701C65.5455 33.6754 64.3364 34.4921 62.9364 35.0575C61.5364 35.623 60.0091 35.9371 58.4182 35.9371C56.8273 35.9371 55.3 35.623 53.9 35.0575C52.5 34.4921 51.2909 33.6754 50.2091 32.6701C49.1273 31.6649 48.3 30.4712 47.7273 29.089C47.0909 27.7068 46.8364 26.2617 46.8364 24.6911C46.8364 23.1204 47.1545 21.6754 47.7273 20.356C48.3636 18.9738 49.1909 17.8429 50.2091 16.7748C51.2909 15.7696 52.5 14.9528 53.9 14.3874C55.3 13.8219 56.8273 13.5078 58.4182 13.5078ZM58.4182 35.4973C59.6909 35.4973 60.8364 35.246 61.9182 34.6806C63 34.1151 63.9545 33.3612 64.7182 32.4188C65.4818 31.4764 66.1182 30.2827 66.5636 28.9633C67.0091 27.6439 67.2636 26.2617 67.2636 24.7539C67.2636 23.246 67.0091 21.8638 66.5636 20.5445C66.1182 19.2251 65.4818 18.0942 64.7182 17.1518C63.8909 16.2094 63 15.3926 61.9182 14.8272C60.8364 14.2617 59.6909 13.9476 58.4182 13.9476C57.2091 13.9476 56.0636 14.2617 54.9818 14.8272C53.9 15.3926 52.9455 16.1466 52.1182 17.1518C51.2909 18.0942 50.6545 19.2251 50.2091 20.5445C49.7636 21.8638 49.5091 23.246 49.5091 24.7539C49.5091 26.2617 49.7636 27.6439 50.2091 28.9633C50.6545 30.2827 51.2909 31.4136 52.1182 32.4188C52.9455 33.3612 53.9 34.178 54.9818 34.6806C56.0636 35.1832 57.2091 35.4973 58.4182 35.4973Z" fill="#141618"/>
<path d="M46.0727 11.309C47.3379 11.309 48.3636 10.2963 48.3636 9.04718C48.3636 7.79803 47.3379 6.7854 46.0727 6.7854C44.8075 6.7854 43.7818 7.79803 43.7818 9.04718C43.7818 10.2963 44.8075 11.309 46.0727 11.309Z" fill="#141618"/>
<path d="M42.8909 13.5708H42.3182H40.2182H38.2454H37.8636H36.9727H36.0182H35.1909H32.9636V14.0106C34.1727 14.0106 35.1273 14.8902 35.1909 15.9582V16.0839V27.1415C35.0636 28.398 34.8091 29.5289 34.4909 30.5341C34.1727 31.5394 33.6636 32.419 33.0909 33.1729C32.4545 33.9268 31.6909 34.4923 30.7363 34.8692C29.7818 35.2462 28.7 35.4347 27.3636 35.4347C25.9 35.4347 24.6909 35.1834 23.8 34.6179C22.9091 34.0525 22.1454 33.2985 21.6363 32.3561C21.1273 31.4137 20.7454 30.2828 20.5545 28.9635C20.3636 27.6441 20.2363 26.1991 20.2363 24.6284V16.1467V16.0839C20.2363 14.953 21.2545 14.0106 22.4636 14.0106V13.5708H20.2363H19.7273H18.4545H18.0091H15.7818V14.0106C16.9909 14.0106 18.0091 14.953 18.0091 16.0839V24.6284C18.0727 26.2619 18.2 27.7698 18.4545 29.0891C18.7091 30.4713 19.1545 31.665 19.7909 32.6703C20.4273 33.6755 21.3818 34.4923 22.5909 35.0577C23.8 35.6232 25.3909 35.9373 27.4273 35.9373C29.2727 35.9373 30.8636 35.686 32.1363 35.1205C33.4091 34.5551 34.4273 33.8012 35.1909 32.9216V35.9373H36.9727H37.8636H40.0909V35.4975C38.8818 35.4975 37.8636 34.9949 37.8636 33.864V16.1467C37.8636 15.0158 38.8818 14.0734 40.0909 14.0734C41.2363 14.0734 42.1909 14.8902 42.3182 15.8954C42.3182 15.8954 42.3182 15.8954 42.3182 15.9582V38.6389C42.2545 39.8954 42.1909 41.0891 42.0636 42.1572C41.9363 43.2252 41.6818 44.1677 41.3636 44.9844C40.9818 45.8012 40.4727 46.4294 39.7727 46.8692C39.0727 47.309 38.1182 47.5603 36.8454 47.5603V48.1258C38.4363 48.1258 39.7091 47.8745 40.7273 47.3718C41.7454 46.8692 42.5727 46.241 43.1454 45.3614C43.7182 44.4818 44.1 43.4766 44.3545 42.3457C44.5454 41.2148 44.6727 39.9582 44.6727 38.6389V13.5708H42.8909Z" fill="#141618"/>
<path d="M15.0182 23.6859C15.0818 25.7592 14.9545 27.644 14.7 29.3403C14.5727 30.0942 14.3818 30.7853 14.1909 31.4764C14 32.1675 13.7455 32.7958 13.4273 33.3613C13.1091 33.9267 12.7273 34.4293 12.2818 34.8063C11.8364 35.1832 11.3273 35.4346 10.6909 35.4974H4.58182V2.70157C4.58182 1.50785 5.6 0.502618 6.80909 0.502618V0H4.58182H2.29091H0.0636364V0.502618H0C1.20909 0.502618 2.16364 1.44503 2.22727 2.63874V2.70157V33.2984V33.3613C2.22727 34.555 1.27273 35.4974 0.0636364 35.4974V36H2.8H4.51818H10.1818H15.7818V23.6859H15.0182Z" fill="#141618"/>
<path d="M48.0455 38.2617H48.6182L49.8909 41.5287H49.2545L49 40.712H47.7273L47.4091 41.5916H46.8364L48.0455 38.2617ZM47.8545 40.2722H48.8727L48.3636 38.8272L47.8545 40.2722Z" fill="#141618"/>
<path d="M50.2091 38.2617H51.7364C52.1182 38.2617 52.3727 38.3245 52.5636 38.513C52.7546 38.6387 52.8182 38.89 52.8182 39.1413C52.8182 39.267 52.8182 39.4554 52.7546 39.5183C52.6909 39.6439 52.6273 39.7067 52.6273 39.7696C52.5636 39.8324 52.5 39.8952 52.4364 39.8952C52.3727 39.8952 52.3091 39.9581 52.3091 39.9581C52.3727 39.9581 52.4364 39.9581 52.4364 40.0209C52.5 40.0209 52.5636 40.0837 52.5636 40.1465C52.6273 40.2094 52.6273 40.2722 52.6909 40.335C52.6909 40.3978 52.7546 40.5235 52.7546 40.6492C52.7546 40.8376 52.7546 41.0261 52.8182 41.1518C52.8182 41.3403 52.8818 41.4031 52.9455 41.4659H52.3091C52.2455 41.4031 52.2455 41.3403 52.2455 41.2146C52.2455 41.1518 52.2455 41.0261 52.2455 40.9633C52.2455 40.8376 52.2455 40.712 52.2455 40.5863C52.2455 40.4607 52.1818 40.3978 52.1182 40.335C52.0546 40.2722 51.9909 40.2094 51.9273 40.1465C51.8636 40.2094 51.7364 40.2094 51.6091 40.2094H50.7818V41.5287H50.2091V38.2617ZM50.7818 39.7696H51.7364C51.9273 39.7696 52.0546 39.7067 52.1182 39.6439C52.1818 39.5811 52.2455 39.4554 52.2455 39.267C52.2455 39.1413 52.2455 39.0785 52.1818 39.0156C52.1818 38.9528 52.1182 38.89 52.0546 38.89C51.9909 38.8272 51.9273 38.8272 51.8636 38.8272C51.8 38.8272 51.7364 38.8272 51.6727 38.8272H50.7818V39.7696Z" fill="#141618"/>
<path d="M53.0091 38.2617H55.6182V38.7643H54.6V41.5287H54.0273V38.7643H53.0091V38.2617Z" fill="#141618"/>
<path d="M58.9909 41.2148C58.8636 41.3404 58.7364 41.4661 58.6091 41.5289C58.4818 41.5917 58.2909 41.6546 58.1 41.6546C57.9727 41.6546 57.8454 41.6546 57.7182 41.5917C57.5909 41.5289 57.4636 41.4661 57.4 41.4032C57.3364 41.3404 57.2091 41.2148 57.2091 41.0891C57.1454 40.9635 57.1454 40.8378 57.1454 40.6493C57.1454 40.5237 57.1454 40.398 57.2091 40.3352C57.2727 40.2095 57.3364 40.1467 57.4 40.0839C57.4636 40.021 57.5273 39.9582 57.6545 39.8954C57.7182 39.8326 57.8454 39.7697 57.9091 39.7069C57.8454 39.6441 57.8454 39.5813 57.7818 39.5184C57.7182 39.4556 57.7182 39.3928 57.6545 39.3299C57.6545 39.2671 57.5909 39.2043 57.5909 39.1415C57.5909 39.0786 57.5909 39.0158 57.5909 38.953C57.5909 38.8273 57.5909 38.7017 57.6545 38.6388C57.7182 38.5132 57.7818 38.4504 57.8454 38.3875C57.9091 38.3247 57.9727 38.2619 58.1 38.1991C58.2273 38.1362 58.2909 38.1362 58.4182 38.1362C58.5454 38.1362 58.6091 38.1362 58.7364 38.1991C58.8636 38.2619 58.9273 38.2619 58.9909 38.3247C59.0545 38.3875 59.1182 38.4504 59.1818 38.576C59.2454 38.7017 59.2454 38.7645 59.2454 38.8902C59.2454 39.0158 59.2454 39.0786 59.1818 39.1415C59.1818 39.2043 59.1182 39.3299 59.0545 39.3928C58.9909 39.4556 58.9273 39.5184 58.8636 39.5813C58.8 39.6441 58.7364 39.7069 58.6091 39.7069L59.1182 40.3352C59.1182 40.2724 59.1818 40.2095 59.1818 40.1467C59.1818 40.0839 59.2454 40.021 59.2454 39.8954H59.6909C59.6909 40.021 59.6273 40.2095 59.6273 40.3352C59.5636 40.4608 59.5 40.5865 59.4364 40.7122L60.0727 41.4661H59.4364L58.9909 41.2148ZM58.1 40.0839C58.0364 40.0839 57.9727 40.1467 57.9727 40.1467C57.9091 40.1467 57.8454 40.2095 57.7818 40.2724C57.7182 40.3352 57.7182 40.398 57.6545 40.4608C57.5909 40.5237 57.5909 40.5865 57.5909 40.7122C57.5909 40.9006 57.6545 41.0263 57.7182 41.0891C57.8454 41.2148 57.9727 41.2148 58.1 41.2148C58.1636 41.2148 58.2909 41.2148 58.3545 41.1519C58.4182 41.1519 58.4818 41.0891 58.5454 41.0891C58.6091 41.0263 58.6091 41.0263 58.6727 40.9635C58.6727 40.9006 58.7364 40.9006 58.7364 40.8378L58.1 40.0839ZM58.2909 38.576C58.1636 38.576 58.1 38.6388 58.0364 38.7017C57.9727 38.7645 57.9091 38.8273 57.9091 38.953C57.9091 39.0158 57.9091 39.0786 57.9091 39.0786C57.9091 39.1415 57.9727 39.1415 57.9727 39.2043C57.9727 39.2671 58.0364 39.2671 58.0364 39.3299C58.1 39.3928 58.1 39.3928 58.1636 39.4556C58.2273 39.3928 58.2273 39.3928 58.2909 39.3299C58.3545 39.2671 58.3545 39.2671 58.4182 39.2043C58.4818 39.1415 58.4818 39.1415 58.4818 39.0786C58.4818 39.0158 58.4818 38.953 58.4818 38.8902C58.4818 38.7645 58.4818 38.7017 58.4182 38.6388C58.4818 38.6388 58.4182 38.576 58.2909 38.576Z" fill="#141618"/>
<path d="M63.2545 40.5237C63.2545 40.6493 63.2545 40.8378 63.1909 40.9634C63.1909 41.0891 63.1273 41.2148 63.0636 41.3404C63 41.4661 62.8727 41.5289 62.7455 41.5917C62.6182 41.6545 62.4273 41.7174 62.1727 41.7174C61.9818 41.7174 61.8545 41.7174 61.7273 41.6546C61.6 41.5917 61.5364 41.5289 61.4091 41.4032C61.3455 41.3404 61.2818 41.2148 61.2182 41.0891C61.1545 40.9635 61.1545 40.8378 61.1545 40.6493V40.4608H61.7273V40.6493C61.7273 40.8378 61.7273 40.9635 61.7909 41.0891C61.8545 41.2148 61.9818 41.2148 62.1727 41.2148C62.2364 41.2148 62.3636 41.2148 62.4273 41.1519C62.4909 41.1519 62.5545 41.0891 62.5545 41.0263C62.6182 40.9635 62.6182 40.9006 62.6182 40.8378C62.6182 40.775 62.6182 40.6493 62.6182 40.5865V38.3247H63.1909V40.5237H63.2545Z" fill="#141618"/>
<path d="M65.2909 38.199C65.5455 38.199 65.7364 38.2618 65.9273 38.3246C66.1182 38.3875 66.3091 38.5131 66.4364 38.7016C66.5637 38.8272 66.6909 39.0157 66.7546 39.267C66.8182 39.4555 66.8818 39.7068 66.8818 39.9581C66.8818 40.2094 66.8182 40.3979 66.7546 40.6492C66.6909 40.8377 66.5637 41.0262 66.4364 41.2147C66.3091 41.3403 66.1182 41.466 65.9273 41.5916C65.7364 41.7173 65.5455 41.7173 65.2909 41.7173C65.0364 41.7173 64.8455 41.6545 64.6546 41.5916C64.4636 41.5288 64.2727 41.4032 64.1455 41.2147C64.0182 41.089 63.8909 40.9005 63.8273 40.6492C63.7637 40.4608 63.7 40.2094 63.7 39.9581C63.7 39.7068 63.7637 39.5183 63.8273 39.267C63.8909 39.0786 64.0182 38.8901 64.1455 38.7016C64.2727 38.5759 64.4636 38.4503 64.6546 38.3246C64.8455 38.199 65.0364 38.199 65.2909 38.199ZM65.2909 38.7016C65.1 38.7016 64.9727 38.7644 64.8455 38.8272C64.7182 38.8901 64.5909 39.0157 64.5273 39.0786C64.4637 39.2042 64.4 39.3299 64.3364 39.4555C64.2727 39.5812 64.2727 39.7697 64.2727 39.8953C64.2727 40.021 64.2727 40.2094 64.3364 40.3351C64.4 40.4608 64.4637 40.6492 64.5273 40.7121C64.5909 40.8377 64.7182 40.9005 64.8455 40.9634C64.9727 41.0262 65.1 41.089 65.2909 41.089C65.4818 41.089 65.6091 41.0262 65.7364 40.9634C65.8637 40.9005 65.9909 40.7749 66.0546 40.7121C66.1182 40.5864 66.1818 40.4608 66.2455 40.3351C66.3091 40.2094 66.3091 40.021 66.3091 39.8953C66.3091 39.7697 66.3091 39.5812 66.2455 39.4555C66.1818 39.3299 66.1182 39.1414 66.0546 39.0786C65.9909 38.9529 65.8637 38.8901 65.7364 38.8272C65.6091 38.7016 65.4818 38.7016 65.2909 38.7016Z" fill="#141618"/>
<path d="M68.2182 40.2722L67.0091 38.2617H67.6455L68.4727 39.7067L69.3 38.2617H69.9364L68.7273 40.2722V41.5287H68.1545V40.2722H68.2182Z" fill="#141618"/>
</g>
<defs>
<clipPath id="clip0">
<rect width="70" height="48" fill="white"/>
</clipPath>
</defs>
</svg>
