<svg width="39" height="27" viewBox="0 0 39 27" fill="none" xmlns="http://www.w3.org/2000/svg">
<path d="M32.5472 7.59814C33.4336 7.59814 34.2845 7.77485 35.0645 8.09291C35.8445 8.41097 36.5181 8.8704 37.1208 9.43584C37.7236 10.0013 38.1845 10.6728 38.5036 11.4502C38.8581 12.2277 38.9999 13.0406 38.9999 13.8887C38.9999 14.7722 38.8227 15.5851 38.5036 16.3625C38.149 17.14 37.6881 17.8115 37.1208 18.3769C36.5181 18.9424 35.8445 19.4018 35.0645 19.7199C34.2845 20.0379 33.4336 20.2146 32.5472 20.2146C31.6608 20.2146 30.8099 20.0379 30.0299 19.7199C29.2499 19.4018 28.5763 18.9424 27.9736 18.3769C27.3708 17.8115 26.9099 17.14 26.5908 16.3625C26.2363 15.5851 26.0945 14.7722 26.0945 13.8887C26.0945 13.0052 26.2718 12.1924 26.5908 11.4502C26.9454 10.6728 27.4063 10.0366 27.9736 9.43584C28.5763 8.8704 29.2499 8.41097 30.0299 8.09291C30.8099 7.77485 31.6608 7.59814 32.5472 7.59814ZM32.5472 19.9673C33.2563 19.9673 33.8945 19.8259 34.4972 19.5078C35.0999 19.1898 35.6318 18.7657 36.0572 18.2356C36.4827 17.7055 36.8372 17.034 37.0854 16.2919C37.3336 15.5497 37.4754 14.7722 37.4754 13.9241C37.4754 13.0759 37.3336 12.2984 37.0854 11.5563C36.8372 10.8141 36.4827 10.178 36.0572 9.64788C35.5963 9.11778 35.0999 8.65835 34.4972 8.34029C33.8945 8.02223 33.2563 7.84553 32.5472 7.84553C31.8736 7.84553 31.2354 8.02223 30.6327 8.34029C30.0299 8.65835 29.4981 9.08244 29.0372 9.64788C28.5763 10.178 28.2218 10.8141 27.9736 11.5563C27.7254 12.2984 27.5836 13.0759 27.5836 13.9241C27.5836 14.7722 27.7254 15.5497 27.9736 16.2919C28.2218 17.034 28.5763 17.6701 29.0372 18.2356C29.4981 18.7657 30.0299 19.2251 30.6327 19.5078C31.2354 19.7906 31.8736 19.9673 32.5472 19.9673Z" fill="#110740"/>
<path d="M25.6691 6.3614C26.374 6.3614 26.9454 5.79179 26.9454 5.08915C26.9454 4.3865 26.374 3.81689 25.6691 3.81689C24.9641 3.81689 24.3927 4.3865 24.3927 5.08915C24.3927 5.79179 24.9641 6.3614 25.6691 6.3614Z" fill="#C84F11"/>
<path d="M23.8964 7.6333H23.5773H22.4073H21.3082H21.0955H20.5991H20.0673H19.6064H18.3655V7.88068C19.0391 7.88068 19.5709 8.37545 19.6064 8.97623V9.04691V15.2668C19.5355 15.9736 19.3936 16.6097 19.2164 17.1752C19.0391 17.7406 18.7555 18.2354 18.4364 18.6595C18.0818 19.0836 17.6564 19.4016 17.1245 19.6137C16.5927 19.8257 15.99 19.9317 15.2455 19.9317C14.43 19.9317 13.7564 19.7904 13.26 19.4723C12.7636 19.1542 12.3382 18.7302 12.0545 18.2001C11.7709 17.6699 11.5582 17.0338 11.4518 16.2917C11.3455 15.5495 11.2745 14.7367 11.2745 13.8532V9.08225V9.04691C11.2745 8.41079 11.8418 7.88068 12.5155 7.88068V7.6333H11.2745H10.9909H10.2818H10.0336H8.79272V7.88068C9.46636 7.88068 10.0336 8.41079 10.0336 9.04691V13.8532C10.0691 14.772 10.14 15.6202 10.2818 16.3624C10.4236 17.1398 10.6718 17.8113 11.0264 18.3768C11.3809 18.9422 11.9127 19.4016 12.5864 19.7197C13.26 20.0377 14.1464 20.2144 15.2809 20.2144C16.3091 20.2144 17.1955 20.0731 17.9045 19.755C18.6136 19.437 19.1809 19.0129 19.6064 18.5181V20.2144H20.5991H21.0955H22.3364V19.9671C21.6627 19.9671 21.0955 19.6843 21.0955 19.0482V9.08225C21.0955 8.44613 21.6627 7.91602 22.3364 7.91602C22.9745 7.91602 23.5064 8.37545 23.5773 8.94089C23.5773 8.94089 23.5773 8.94089 23.5773 8.97623V21.7341C23.5418 22.4409 23.5064 23.1124 23.4355 23.7131C23.3645 24.3139 23.2227 24.844 23.0455 25.3035C22.8327 25.7629 22.5491 26.1163 22.1591 26.3637C21.7691 26.611 21.2373 26.7524 20.5282 26.7524V27.0705C21.4145 27.0705 22.1236 26.9291 22.6909 26.6464C23.2582 26.3637 23.7191 26.0103 24.0382 25.5155C24.3573 25.0207 24.57 24.4553 24.7118 23.8192C24.8182 23.183 24.8891 22.4762 24.8891 21.7341V7.6333H23.8964Z" fill="#110740"/>
<path d="M8.36727 13.3233C8.40273 14.4895 8.33182 15.5497 8.19 16.5039C8.11909 16.928 8.01273 17.3168 7.90636 17.7055C7.8 18.0942 7.65818 18.4476 7.48091 18.7657C7.30364 19.0838 7.09091 19.3665 6.84273 19.5785C6.59455 19.7906 6.31091 19.9319 5.95636 19.9673H2.55273V1.51963C2.55273 0.848168 3.12 0.282723 3.79364 0.282723V0H2.55273H1.27636H0.0354545V0.282723H0C0.673636 0.282723 1.20545 0.812827 1.24091 1.48429V1.51963V18.7304V18.7657C1.24091 19.4372 0.709091 19.9673 0.0354545 19.9673V20.25H1.56H2.51727H5.67273H8.79273V13.3233H8.36727Z" fill="#110740"/>
<path d="M26.7681 21.5225H27.0872L27.7963 23.3602H27.4418L27.2999 22.9007H26.5908L26.4136 23.3955H26.0945L26.7681 21.5225ZM26.6618 22.6533H27.229L26.9454 21.8405L26.6618 22.6533Z" fill="#110740"/>
<path d="M27.9736 21.5225H28.8245C29.0373 21.5225 29.1791 21.5578 29.2854 21.6638C29.3918 21.7345 29.4273 21.8759 29.4273 22.0172C29.4273 22.0879 29.4273 22.1939 29.3918 22.2293C29.3564 22.2999 29.3209 22.3353 29.3209 22.3706C29.2854 22.406 29.25 22.4413 29.2145 22.4413C29.1791 22.4413 29.1436 22.4766 29.1436 22.4766C29.1791 22.4766 29.2145 22.4766 29.2145 22.512C29.25 22.512 29.2854 22.5473 29.2854 22.5827C29.3209 22.618 29.3209 22.6533 29.3564 22.6887C29.3564 22.724 29.3918 22.7947 29.3918 22.8654C29.3918 22.9714 29.3918 23.0774 29.4273 23.1481C29.4273 23.2541 29.4627 23.2895 29.4982 23.3248H29.1436C29.1082 23.2895 29.1082 23.2541 29.1082 23.1835C29.1082 23.1481 29.1082 23.0774 29.1082 23.0421C29.1082 22.9714 29.1082 22.9007 29.1082 22.8301C29.1082 22.7594 29.0727 22.724 29.0373 22.6887C29.0018 22.6533 28.9664 22.618 28.9309 22.5827C28.8954 22.618 28.8245 22.618 28.7536 22.618H28.2927V23.3602H27.9736V21.5225ZM28.2927 22.3706H28.8245C28.9309 22.3706 29.0018 22.3353 29.0373 22.2999C29.0727 22.2646 29.1082 22.1939 29.1082 22.0879C29.1082 22.0172 29.1082 21.9819 29.0727 21.9465C29.0727 21.9112 29.0373 21.8759 29.0018 21.8759C28.9664 21.8405 28.9309 21.8405 28.8954 21.8405C28.86 21.8405 28.8245 21.8405 28.7891 21.8405H28.2927V22.3706Z" fill="#110740"/>
<path d="M29.5336 21.5225H30.9872V21.8052H30.4199V23.3602H30.1008V21.8052H29.5336V21.5225Z" fill="#110740"/>
<path d="M32.8663 23.1833C32.7954 23.254 32.7245 23.3247 32.6536 23.36C32.5827 23.3954 32.4763 23.4307 32.37 23.4307C32.299 23.4307 32.2281 23.4307 32.1572 23.3954C32.0863 23.36 32.0154 23.3247 31.98 23.2894C31.9445 23.254 31.8736 23.1833 31.8736 23.1127C31.8381 23.042 31.8381 22.9713 31.8381 22.8653C31.8381 22.7946 31.8381 22.7239 31.8736 22.6886C31.909 22.6179 31.9445 22.5826 31.98 22.5472C32.0154 22.5119 32.0509 22.4765 32.1218 22.4412C32.1572 22.4058 32.2281 22.3705 32.2636 22.3352C32.2281 22.2998 32.2281 22.2645 32.1927 22.2291C32.1572 22.1938 32.1572 22.1585 32.1218 22.1231C32.1218 22.0878 32.0863 22.0524 32.0863 22.0171C32.0863 21.9818 32.0863 21.9464 32.0863 21.9111C32.0863 21.8404 32.0863 21.7697 32.1218 21.7344C32.1572 21.6637 32.1927 21.6284 32.2281 21.593C32.2636 21.5577 32.299 21.5223 32.37 21.487C32.4409 21.4517 32.4763 21.4517 32.5472 21.4517C32.6181 21.4517 32.6536 21.4517 32.7245 21.487C32.7954 21.5223 32.8309 21.5223 32.8663 21.5577C32.9018 21.593 32.9372 21.6284 32.9727 21.699C33.0081 21.7697 33.0081 21.8051 33.0081 21.8757C33.0081 21.9464 33.0081 21.9818 32.9727 22.0171C32.9727 22.0524 32.9372 22.1231 32.9018 22.1585C32.8663 22.1938 32.8309 22.2291 32.7954 22.2645C32.76 22.2998 32.7245 22.3352 32.6536 22.3352L32.9372 22.6886C32.9372 22.6532 32.9727 22.6179 32.9727 22.5826C32.9727 22.5472 33.0081 22.5119 33.0081 22.4412H33.2563C33.2563 22.5119 33.2209 22.6179 33.2209 22.6886C33.1854 22.7593 33.15 22.8299 33.1145 22.9006L33.469 23.3247H33.1145L32.8663 23.1833ZM32.37 22.5472C32.3345 22.5472 32.299 22.5826 32.299 22.5826C32.2636 22.5826 32.2281 22.6179 32.1927 22.6532C32.1572 22.6886 32.1572 22.7239 32.1218 22.7593C32.0863 22.7946 32.0863 22.8299 32.0863 22.9006C32.0863 23.0066 32.1218 23.0773 32.1572 23.1127C32.2281 23.1833 32.299 23.1833 32.37 23.1833C32.4054 23.1833 32.4763 23.1833 32.5118 23.148C32.5472 23.148 32.5827 23.1127 32.6181 23.1127C32.6536 23.0773 32.6536 23.0773 32.689 23.042C32.689 23.0066 32.7245 23.0066 32.7245 22.9713L32.37 22.5472ZM32.4763 21.699C32.4054 21.699 32.37 21.7344 32.3345 21.7697C32.299 21.8051 32.2636 21.8404 32.2636 21.9111C32.2636 21.9464 32.2636 21.9818 32.2636 21.9818C32.2636 22.0171 32.299 22.0171 32.299 22.0524C32.299 22.0878 32.3345 22.0878 32.3345 22.1231C32.37 22.1585 32.37 22.1585 32.4054 22.1938C32.4409 22.1585 32.4409 22.1585 32.4763 22.1231C32.5118 22.0878 32.5118 22.0878 32.5472 22.0524C32.5827 22.0171 32.5827 22.0171 32.5827 21.9818C32.5827 21.9464 32.5827 21.9111 32.5827 21.8757C32.5827 21.8051 32.5827 21.7697 32.5472 21.7344C32.5827 21.7344 32.5472 21.699 32.4763 21.699Z" fill="#110740"/>
<path d="M35.2418 22.7945C35.2418 22.8652 35.2418 22.9712 35.2063 23.0419C35.2063 23.1126 35.1709 23.1833 35.1354 23.254C35.1 23.3246 35.0291 23.36 34.9581 23.3953C34.8872 23.4307 34.7809 23.466 34.6391 23.466C34.5327 23.466 34.4618 23.466 34.3909 23.4307C34.32 23.3953 34.2845 23.36 34.2136 23.2893C34.1781 23.254 34.1427 23.1833 34.1072 23.1126C34.0718 23.0419 34.0718 22.9712 34.0718 22.8652V22.7592H34.3909V22.8652C34.3909 22.9712 34.3909 23.0419 34.4263 23.1126C34.4618 23.1833 34.5327 23.1833 34.6391 23.1833C34.6745 23.1833 34.7454 23.1833 34.7809 23.1479C34.8163 23.1479 34.8518 23.1126 34.8518 23.0773C34.8872 23.0419 34.8872 23.0066 34.8872 22.9712C34.8872 22.9359 34.8872 22.8652 34.8872 22.8299V21.5576H35.2063V22.7945H35.2418Z" fill="#110740"/>
<path d="M36.3762 21.4868C36.518 21.4868 36.6244 21.5222 36.7308 21.5575C36.8371 21.5928 36.9435 21.6635 37.0144 21.7695C37.0853 21.8402 37.1562 21.9462 37.1917 22.0876C37.2271 22.1936 37.2626 22.335 37.2626 22.4763C37.2626 22.6177 37.2271 22.7237 37.1917 22.8651C37.1562 22.9711 37.0853 23.0771 37.0144 23.1832C36.9435 23.2538 36.8371 23.3245 36.7308 23.3952C36.6244 23.4659 36.518 23.4659 36.3762 23.4659C36.2344 23.4659 36.128 23.4305 36.0217 23.3952C35.9153 23.3599 35.809 23.2892 35.7381 23.1832C35.6671 23.1125 35.5962 23.0064 35.5608 22.8651C35.5253 22.7591 35.4899 22.6177 35.4899 22.4763C35.4899 22.335 35.5253 22.229 35.5608 22.0876C35.5962 21.9816 35.6671 21.8756 35.7381 21.7695C35.809 21.6989 35.9153 21.6282 36.0217 21.5575C36.128 21.4868 36.2344 21.4868 36.3762 21.4868ZM36.3762 21.7695C36.2699 21.7695 36.199 21.8049 36.128 21.8402C36.0571 21.8756 35.9862 21.9462 35.9508 21.9816C35.9153 22.0523 35.8799 22.1229 35.8444 22.1936C35.809 22.2643 35.809 22.3703 35.809 22.441C35.809 22.5117 35.809 22.6177 35.8444 22.6884C35.8799 22.7591 35.9153 22.8651 35.9508 22.9004C35.9862 22.9711 36.0571 23.0064 36.128 23.0418C36.199 23.0771 36.2699 23.1125 36.3762 23.1125C36.4826 23.1125 36.5535 23.0771 36.6244 23.0418C36.6953 23.0064 36.7662 22.9358 36.8017 22.9004C36.8371 22.8298 36.8726 22.7591 36.908 22.6884C36.9435 22.6177 36.9435 22.5117 36.9435 22.441C36.9435 22.3703 36.9435 22.2643 36.908 22.1936C36.8726 22.1229 36.8371 22.0169 36.8017 21.9816C36.7662 21.9109 36.6953 21.8756 36.6244 21.8402C36.5535 21.7695 36.4826 21.7695 36.3762 21.7695Z" fill="#110740"/>
<path d="M38.0071 22.6534L37.3335 21.5225H37.688L38.1489 22.3353L38.6099 21.5225H38.9644L38.2908 22.6534V23.3602H37.9717V22.6534H38.0071Z" fill="#110740"/>
</svg>
