<svg width="84" height="39" viewBox="0 0 84 39" fill="none" xmlns="http://www.w3.org/2000/svg">
<path d="M6.67742 14.8747L5.79765 13.6072C6.73097 13.5702 7.61134 13.1644 8.2451 12.4791C8.87886 11.7938 9.21409 10.885 9.17705 9.95284C9.14001 9.02064 8.73373 8.14132 8.04759 7.50832C7.36144 6.87531 6.45164 6.54048 5.51833 6.57748H0V7.89555H5.51833C6.10165 7.89555 6.66108 8.12699 7.07355 8.53897C7.48602 8.95095 7.71774 9.50971 7.71774 10.0923C7.71774 10.675 7.48602 11.2337 7.07355 11.6457C6.66108 12.0577 6.10165 12.2891 5.51833 12.2891H0V18.4731H1.31965V13.616H4.20308L7.55718 18.4819H9.17155L6.67742 14.8747Z" fill="#5A5C5D"/>
<path d="M15.8292 18.482L20.9429 6.57764L26.0719 18.4754H24.706L20.9516 9.72783L17.1577 18.4754L15.8292 18.482Z" fill="#5A5C5D"/>
<path d="M37.7947 12.3308H36.4663V18.4752H37.7947V12.3308Z" fill="#5A5C5D"/>
<path d="M38.1291 3.91517C38.1291 3.16926 37.9159 2.43885 37.5144 1.80993C37.1128 1.18101 36.5398 0.679758 35.8627 0.365179C35.1855 0.0505991 34.4325 -0.0642076 33.6922 0.0342698C32.952 0.132747 32.2553 0.44041 31.6842 0.921042C31.1131 1.40167 30.6914 2.03527 30.4687 2.74723C30.246 3.45919 30.2316 4.21989 30.4271 4.93976C30.6227 5.65964 31.0201 6.30873 31.5725 6.81062C32.125 7.31251 32.8095 7.64631 33.5455 7.77272V23.1502H34.8651V7.77272C35.7776 7.61814 36.6058 7.14603 37.2032 6.43999C37.8006 5.73396 38.1286 4.83956 38.1291 3.91517ZM31.544 3.91517C31.544 3.38857 31.7003 2.8738 31.9933 2.43595C32.2862 1.99811 32.7025 1.65685 33.1896 1.45533C33.6767 1.25381 34.2127 1.20109 34.7297 1.30382C35.2468 1.40655 35.7218 1.66013 36.0946 2.03249C36.4674 2.40485 36.7213 2.87926 36.8242 3.39573C36.927 3.91221 36.8742 4.44755 36.6725 4.93406C36.4707 5.42057 36.129 5.8364 35.6907 6.12896C35.2523 6.42152 34.7369 6.57767 34.2097 6.57767C33.8586 6.57911 33.5107 6.51133 33.1859 6.3782C32.8611 6.24507 32.5658 6.04922 32.3169 5.80186C32.068 5.55451 31.8705 5.26053 31.7356 4.93677C31.6007 4.61301 31.5311 4.26584 31.5308 3.91517H31.544Z" fill="#5A5C5D"/>
<path d="M84 6.57764H82.2888L78.5498 12.0696L74.7998 6.57764H73.0909L74.8746 9.21378L75.6136 10.3122C76.3687 11.4252 77.1019 12.5046 77.813 13.5502V18.4952H79.2184V13.5502L82.6231 8.58769L84 6.57764Z" fill="#5A5C5D"/>
<path d="M62.802 13.5698L61.6715 12.4714L64.7287 9.5782L67.8959 6.58398H65.8416L60.6994 11.4169V6.59497H59.2874V18.4774H60.6994V13.4423L65.8064 18.4642H67.8079L62.802 13.5588V13.5698Z" fill="#5A5C5D"/>
<path d="M51.4706 13.1831C51.1023 12.8168 50.6748 12.5153 50.206 12.2912C49.6309 12.0078 49.027 11.7868 48.4047 11.6321C47.3665 11.3729 46.6092 11.0163 46.1327 10.5623C45.9955 10.4562 45.8867 10.3178 45.8161 10.1595C45.7455 10.0012 45.7152 9.82786 45.728 9.65502C45.7672 9.42448 45.8683 9.20888 46.0205 9.03114C46.1939 8.82202 46.3996 8.64182 46.6297 8.49732C46.8854 8.33533 47.1612 8.20756 47.4501 8.11727C47.7486 8.02105 48.0603 7.97213 48.3739 7.97229C49.0881 7.95102 49.7946 8.12496 50.4171 8.47535C50.4171 8.47535 50.7272 8.69503 50.8306 8.77411L50.8614 8.79828L51.2705 9.15855L51.4904 8.98281L52.3438 8.304C52.2378 8.21325 52.1379 8.11565 52.0447 8.01183C51.8117 7.78592 51.5534 7.58762 51.2749 7.42089C50.885 7.18389 50.4715 6.98805 50.041 6.83655C49.5039 6.64979 48.9381 6.55907 48.3695 6.56854C47.9062 6.57014 47.4461 6.64426 47.0058 6.78822C46.562 6.92923 46.1411 7.13423 45.7566 7.39673C45.3825 7.62981 45.0618 7.93894 44.8152 8.304L44.8306 8.28862C44.7012 8.47101 44.592 8.66695 44.5051 8.87297C44.4207 9.06885 44.3659 9.27613 44.3423 9.48807C44.3313 9.63431 44.3313 9.78118 44.3423 9.92743C44.3706 10.3179 44.4953 10.6952 44.7052 11.0258C44.8363 11.2347 44.9946 11.4253 45.1759 11.5926C45.5372 11.915 45.9478 12.1776 46.3922 12.3703C46.9364 12.6137 47.5009 12.8092 48.0791 12.9546C48.8761 13.1273 49.6263 13.4698 50.2786 13.9585C50.7859 14.3803 51.0132 14.8446 50.9604 15.3513C50.929 15.5707 50.8452 15.7794 50.7162 15.9598C50.5689 16.1781 50.3886 16.3722 50.1818 16.5354C49.9283 16.7253 49.6462 16.8736 49.346 16.9747C49.0346 17.0778 48.7085 17.1298 48.3805 17.1285C47.8835 17.1326 47.3878 17.0758 46.9047 16.9593C46.4833 16.8602 46.0828 16.6877 45.7214 16.4497C45.5394 16.3235 45.3733 16.176 45.2265 16.0103C45.0799 15.8434 44.9802 15.7218 44.9274 15.6457L43.6935 16.2454C43.7038 16.2673 43.8013 16.397 43.986 16.6342C44.2298 16.9284 44.5107 17.1898 44.8218 17.4119C45.2636 17.73 45.7468 17.9865 46.258 18.1742C46.9392 18.4173 47.6595 18.5327 48.3827 18.5147C48.8591 18.5159 49.3327 18.4418 49.7859 18.295C50.2277 18.1532 50.6421 17.937 51.011 17.6557C51.3719 17.3935 51.6776 17.0628 51.9105 16.6825C52.1301 16.3308 52.2795 15.9399 52.3504 15.5314C52.434 14.6791 52.1407 13.8963 51.4706 13.1831Z" fill="#5A5C5D"/>
<path d="M33.8622 27.5237H32.5997V26.6824H36.0374V27.5237H34.7749V30.8189H33.8622V27.5237Z" fill="#5A5C5D"/>
<path d="M38.5139 26.6825H40.4098C40.6292 26.6686 40.8492 26.6986 41.0569 26.7706C41.2646 26.8427 41.4559 26.9554 41.6195 27.1021C41.7392 27.2281 41.8324 27.3769 41.8936 27.5395C41.9548 27.7021 41.9827 27.8753 41.9758 28.0489V28.0599C41.9897 28.3407 41.9113 28.6183 41.7524 28.8503C41.5936 29.0824 41.363 29.2561 41.096 29.345L42.1099 30.8256H41.0432L40.1635 29.5076H39.4267V30.8256H38.5139V26.6825ZM40.3504 28.6948C40.7903 28.6948 41.0498 28.4575 41.0498 28.1082V28.0972C41.0498 27.7062 40.7771 27.5063 40.3328 27.5063H39.4267V28.697H40.3504V28.6948Z" fill="#5A5C5D"/>
<path d="M46.0008 26.6541H46.8431L48.6203 30.8279H47.6657L47.2874 29.8987H45.5279L45.1496 30.8279H44.2214L46.0008 26.6541ZM46.9597 29.0925L46.4077 27.748L45.8556 29.0925H46.9553H46.9597Z" fill="#5A5C5D"/>
<path d="M50.0894 26.6824H51.1056L52.1899 29.5997L53.2742 26.6824H54.2573L52.5792 30.8563H51.7654L50.0894 26.6824Z" fill="#5A5C5D"/>
<path d="M56.6679 26.6824H59.7977V27.5018H57.5741V28.3431H59.5294V29.1538H57.5741V30.0325H59.8263V30.8431H56.6679V26.6824Z" fill="#5A5C5D"/>
<path d="M62.415 26.6824H63.3277V29.9973H65.4018V30.8255H62.415V26.6824Z" fill="#5A5C5D"/>
<path d="M32.7119 35.8696V35.8499C32.7071 35.5658 32.7598 35.2836 32.867 35.0204C32.9742 34.7572 33.1335 34.5184 33.3355 34.3183C33.5375 34.1182 33.7779 33.961 34.0423 33.8561C34.3067 33.7512 34.5896 33.7009 34.874 33.708C35.1765 33.6928 35.4788 33.742 35.7609 33.8522C36.0429 33.9624 36.2984 34.1311 36.5103 34.3473L35.9297 35.0063C35.6508 34.7184 35.2705 34.5505 34.8696 34.5384C34.705 34.5417 34.5428 34.578 34.3926 34.6451C34.2423 34.7122 34.1071 34.8087 33.9949 34.929C33.8827 35.0492 33.7958 35.1908 33.7394 35.3452C33.683 35.4996 33.6582 35.6637 33.6665 35.8279V35.8499C33.6665 36.5594 34.1591 37.1526 34.8696 37.1526C35.0765 37.1519 35.2811 37.1084 35.4703 37.0249C35.6596 36.9413 35.8295 36.8195 35.9693 36.6671L36.5499 37.2536C36.3412 37.4976 36.0797 37.6911 35.7852 37.8193C35.4907 37.9476 35.1708 38.0073 34.8498 37.9939C34.5683 37.9999 34.2886 37.9491 34.0272 37.8446C33.7659 37.7401 33.5283 37.584 33.3288 37.3857C33.1292 37.1874 32.9717 36.9509 32.8657 36.6904C32.7597 36.4299 32.7074 36.1508 32.7119 35.8696Z" fill="#5A5C5D"/>
<path d="M38.7471 35.8698V35.85C38.7463 35.5615 38.8025 35.2757 38.9124 35.0089C39.0222 34.7421 39.1836 34.4995 39.3874 34.295C39.5911 34.0905 39.8331 33.9281 40.0997 33.817C40.3663 33.706 40.6521 33.6484 40.941 33.6477C41.2298 33.647 41.5159 33.7031 41.7831 33.8128C42.0502 33.9226 42.2931 34.0838 42.4978 34.2873C42.7025 34.4907 42.8652 34.7325 42.9764 34.9987C43.0876 35.265 43.1452 35.5505 43.1459 35.839V35.85C43.1472 36.1385 43.0916 36.4244 42.9822 36.6914C42.8729 36.9584 42.712 37.2013 42.5087 37.4063C42.3054 37.6112 42.0636 37.7741 41.7973 37.8857C41.5309 37.9973 41.2452 38.0554 40.9564 38.0567C40.6675 38.058 40.3813 38.0024 40.1139 37.8932C39.8466 37.784 39.6034 37.6233 39.3982 37.4202C39.1931 37.2172 39.03 36.9757 38.9183 36.7097C38.8065 36.4437 38.7484 36.1582 38.7471 35.8698ZM42.2023 35.8698V35.85C42.2082 35.6814 42.1801 35.5133 42.1197 35.3558C42.0593 35.1983 41.9678 35.0545 41.8507 34.9329C41.7335 34.8114 41.5931 34.7147 41.4378 34.6484C41.2824 34.5822 41.1154 34.5478 40.9465 34.5473C40.7789 34.5466 40.6128 34.5798 40.4584 34.6449C40.304 34.71 40.1644 34.8058 40.0481 34.9263C39.9317 35.0468 39.841 35.1896 39.7815 35.3461C39.7219 35.5026 39.6948 35.6695 39.7016 35.8368V35.85C39.6957 36.0186 39.7238 36.1866 39.7842 36.3442C39.8446 36.5017 39.9361 36.6455 40.0533 36.767C40.1704 36.8886 40.3108 36.9853 40.4662 37.0516C40.6215 37.1178 40.7886 37.1522 40.9575 37.1527C41.1243 37.1531 41.2895 37.1199 41.4432 37.055C41.5969 36.9901 41.736 36.895 41.852 36.7752C41.968 36.6554 42.0586 36.5135 42.1184 36.3579C42.1783 36.2023 42.2061 36.0363 42.2001 35.8698H42.2023Z" fill="#5A5C5D"/>
<path d="M45.7456 33.7871H46.588L48.5323 36.3376V33.7871H49.434V37.9302H48.6576L46.6496 35.2941V37.9302H45.7478V33.7871H45.7456Z" fill="#5A5C5D"/>
<path d="M52.0206 35.8696V35.8499C52.0157 35.5658 52.0685 35.2836 52.1757 35.0204C52.2828 34.7572 52.4422 34.5184 52.6442 34.3183C52.8461 34.1182 53.0866 33.961 53.3509 33.8561C53.6153 33.7512 53.8982 33.7009 54.1826 33.708C54.4851 33.6928 54.7874 33.742 55.0695 33.8522C55.3516 33.9624 55.607 34.1311 55.819 34.3473L55.2383 35.0063C54.9595 34.7184 54.5791 34.5505 54.1782 34.5384C54.0117 34.5416 53.8476 34.5785 53.6958 34.647C53.544 34.7154 53.4077 34.814 53.2952 34.9366C53.1827 35.0592 53.0963 35.2034 53.0413 35.3604C52.9863 35.5174 52.9638 35.6839 52.9751 35.8499C52.9751 36.5594 53.4678 37.1526 54.1782 37.1526C54.3851 37.1519 54.5897 37.1084 54.779 37.0249C54.9682 36.9413 55.1381 36.8195 55.2779 36.6671L55.8586 37.2536C55.6499 37.4976 55.3884 37.6911 55.0938 37.8193C54.7993 37.9476 54.4794 38.0073 54.1584 37.9939C53.877 37.9999 53.5972 37.9491 53.3359 37.8446C53.0745 37.7401 52.837 37.584 52.6374 37.3857C52.4378 37.1874 52.2804 36.9509 52.1744 36.6904C52.0684 36.4299 52.0161 36.1508 52.0206 35.8696Z" fill="#5A5C5D"/>
<path d="M58.3966 33.7871H59.3094V37.9302H58.3966V33.7871Z" fill="#5A5C5D"/>
<path d="M62.1247 33.7871H65.2544V34.5977H63.033V35.4391H64.9883V36.2497H63.033V37.1284H65.2852V37.939H62.1247V33.7871Z" fill="#5A5C5D"/>
<path d="M67.8739 33.7872H69.7698C69.9893 33.7734 70.2093 33.8033 70.417 33.8754C70.6247 33.9474 70.8159 34.0601 70.9795 34.2068C71.0992 34.3329 71.1924 34.4816 71.2536 34.6442C71.3148 34.8068 71.3427 34.9801 71.3358 35.1536V35.1646C71.3498 35.4454 71.2713 35.723 71.1125 35.9551C70.9536 36.1871 70.7231 36.3609 70.456 36.4497L71.47 37.9304H70.4033L69.5235 36.6123H68.8065V37.9304H67.8937V33.7872H67.8739ZM69.7104 35.7995C70.1503 35.7995 70.4099 35.5622 70.4099 35.213V35.191C70.4099 34.8 70.1371 34.6001 69.6928 34.6001H68.7867V35.7907H69.7104V35.7995Z" fill="#5A5C5D"/>
<path d="M73.7596 35.8696V35.8498C73.7574 35.5653 73.8125 35.2833 73.9214 35.0205C74.0304 34.7577 74.191 34.5193 74.3939 34.3196C74.5967 34.1199 74.8376 33.9628 75.1022 33.8578C75.3669 33.7527 75.65 33.7018 75.9348 33.7079C76.5317 33.6767 77.117 33.8811 77.5645 34.2769L76.9839 34.9711C76.6921 34.6938 76.3023 34.543 75.8996 34.5515C75.5707 34.5658 75.2608 34.7094 75.0375 34.9509C74.8142 35.1925 74.6956 35.5125 74.7075 35.841V35.8498C74.6969 36.0203 74.7216 36.1911 74.7802 36.3516C74.8387 36.512 74.9297 36.6587 75.0476 36.7824C75.1655 36.9062 75.3077 37.0043 75.4652 37.0706C75.6228 37.1369 75.7924 37.17 75.9634 37.1679C76.269 37.1774 76.5699 37.0905 76.8233 36.9196V36.3287H75.904V35.5423H77.7053V37.3414C77.2137 37.7681 76.5839 38.0022 75.9326 38.0005C74.6393 38.0005 73.7596 37.0954 73.7596 35.8696Z" fill="#5A5C5D"/>
<path d="M80.3578 33.7871H83.4876V34.5977H81.2662V35.4391H83.2171V36.2497H81.2618V37.1284H83.514V37.939H80.3578V33.7871Z" fill="#5A5C5D"/>
</svg>
