<svg width="22" height="22" viewBox="0 0 22 22" fill="none" xmlns="http://www.w3.org/2000/svg">
<path fill-rule="evenodd" clip-rule="evenodd" d="M0 11C0 17.0751 4.92487 22 11 22C17.0751 22 22 17.0751 22 11C22 4.92487 17.0751 0 11 0C4.92487 0 0 4.92487 0 11ZM20 11C20 15.9706 15.9706 20 11 20C6.02944 20 2 15.9706 2 11C2 6.02944 6.02944 2 11 2C15.9706 2 20 6.02944 20 11Z" fill="#DADADA"/>
<path d="M14.25 10.567C14.5833 10.7594 14.5833 11.2406 14.25 11.433L9.75 14.0311C9.41667 14.2235 9 13.983 9 13.5981L9 8.40192C9 8.01702 9.41667 7.77646 9.75 7.96891L14.25 10.567Z" fill="#DADADA"/>
</svg>
